# xmcd CD database file
#
# Track frame offsets:
#	150
#	15204
#	36711
#	52353
#	65057
#	78988
#	94060
#	111902
#	125776
#	141782
#	154605
#	168501
#	184841
#	198578
#	212367
#	230325
#	253328
#	268248
#	286061
#	299129
#
# Disc length: 4199 seconds
#
# Revision: 0
# Processed by: cddbd v1.5.2PL0 Copyright (c) Steve Scherf et al.
# Submitted via: CDex 1.51
#
DISCID=3c106514
DTITLE=AM4 - Vol. 7 - Ventan Séyon
DYEAR=2006
DGENRE=Traditionel 972
TTITLE0=Pierre Dru - Manman -O-Ladja (Danmyé)
TTITLE1=Victor Treffre - O Manman Manman (Gran Bélé Sud)
TTITLE2=Willy Meillet - Tjenbé Bouwo (Bélé)
TTITLE3=Wilfried Zaire - Arafat (Danmyé)
TTITLE4=Jacque Bajal - Kouzen (Bélé Di Nô)
TTITLE5=Pierre Dru - Man Gadé Madanm La (Bélé Di Nô)
TTITLE6=André Dru - Nou Lé Nwar (Gran Bélé Di Nô)
TTITLE7=Wilfried Zaîre - Antan Lamiral Robé (Bélé Du Nord)
TTITLE8=André Dru - Sa Ki Trasé (Béliya)
TTITLE9=Victor Treffre - Vwayajé (Bélé Du Nord)
TTITLE10=Wilfried Zaîre - Chavez Bravo (Bélé Du Nord)
TTITLE11=André Dru - Lang Lan Léjé (Grand bélé Du Nord)
TTITLE12=Pierre Dru - Wacha Wacha (Bélé Du Nord)
TTITLE13=Wilfried Zaîre - Man Lanfé (Grand Bélé Du Nord)
TTITLE14=Pierre Dru - Siel Krévé (Danmyé)
TTITLE15=Guyléne Marie-Angélique - Lavwé Séniér (Lavwa Moun)
TTITLE16=Pierre Dru - Vwazin Pé (Kalennda)
TTITLE17=Pierre Dru - Polina (Mabélo)
TTITLE18=Pierre Dru - Mi I Ni Miel Adan (Ting Bang)
TTITLE19=André Dru - Woulé (Kalennda)
EXTD=YEAR: 2006
EXTT0=
EXTT1=
EXTT2=
EXTT3=
EXTT4=
EXTT5=
EXTT6=
EXTT7=
EXTT8=
EXTT9=
EXTT10=
EXTT11=
EXTT12=
EXTT13=
EXTT14=
EXTT15=
EXTT16=
EXTT17=
EXTT18=
EXTT19=
PLAYORDER=
